<svg xmlns="http://www.w3.org/2000/svg" viewBox="0 0 400 400" width="400" height="400">
  <!-- SmallClaimsPro Social Media Profile Picture -->
  
  <rect width="400" height="400" fill="#ECFDF5"/>
  
  <g transform="translate(70, 50)">
    <rect x="110" y="70" width="30" height="120" rx="15" fill="#10B981"/>
    <rect x="10" y="55" width="230" height="12" rx="6" fill="#10B981" transform="rotate(-3 125 61)"/>
    
    <circle cx="45" cy="125" r="50" fill="white" stroke="#10B981" stroke-width="4"/>
    <text x="45" y="118" text-anchor="middle" fill="#059669" font-family="system-ui, -apple-system, sans-serif" font-size="16" font-weight="700">YOUR</text>
    <text x="45" y="138" text-anchor="middle" fill="#059669" font-family="system-ui, -apple-system, sans-serif" font-size="16" font-weight="700">CASE</text>
    <line x1="45" y1="75" x2="45" y2="68" stroke="#10B981" stroke-width="3"/>
    
    <circle cx="205" cy="95" r="42" fill="#FEF3C7" stroke="#F59E0B" stroke-width="3"/>
    <text x="205" y="102" text-anchor="middle" fill="#D97706" font-family="system-ui, -apple-system, sans-serif" font-size="20" font-weight="700">$$$</text>
    <line x1="205" y1="53" x2="205" y2="48" stroke="#10B981" stroke-width="3"/>
    
    <circle cx="205" cy="175" r="36" fill="#10B981"/>
    <path d="M185 175 L200 190 L230 155" fill="none" stroke="white" stroke-width="7" stroke-linecap="round" stroke-linejoin="round"/>
    
    <circle cx="-5" cy="60" r="8" fill="#FCD34D"/>
    <circle cx="255" cy="35" r="7" fill="#FCD34D"/>
    <circle cx="265" cy="140" r="5" fill="#FCD34D"/>
    <circle cx="-20" cy="140" r="5" fill="#FCD34D"/>
    
    <line x1="125" y1="20" x2="125" y2="5" stroke="#FCD34D" stroke-width="4" stroke-linecap="round"/>
    <line x1="155" y1="28" x2="170" y2="12" stroke="#FCD34D" stroke-width="4" stroke-linecap="round"/>
    <line x1="95" y1="28" x2="80" y2="12" stroke="#FCD34D" stroke-width="4" stroke-linecap="round"/>
  </g>
  
  <text x="200" y="330" text-anchor="middle" fill="#1F2937" font-family="system-ui, -apple-system, sans-serif" font-size="32" font-weight="700">SmallClaims</text>
  <text x="200" y="365" text-anchor="middle" fill="#10B981" font-family="system-ui, -apple-system, sans-serif" font-size="32" font-weight="700">Pro</text>
</svg>
