<svg xmlns="http://www.w3.org/2000/svg" viewBox="0 0 1200 630" width="1200" height="630">
  <!-- SmallClaimsPro Social Cover Image -->
  
  <defs>
    <linearGradient id="bg-gradient" x1="0%" y1="0%" x2="100%" y2="100%">
      <stop offset="0%" stop-color="#ECFDF5"/>
      <stop offset="100%" stop-color="#D1FAE5"/>
    </linearGradient>
  </defs>
  <rect width="1200" height="630" fill="url(#bg-gradient)"/>
  
  <!-- Decorative sparkles -->
  <circle cx="100" cy="100" r="8" fill="#FCD34D" opacity="0.6"/>
  <circle cx="200" cy="500" r="6" fill="#FCD34D" opacity="0.5"/>
  <circle cx="1100" cy="150" r="10" fill="#FCD34D" opacity="0.6"/>
  <circle cx="1050" cy="480" r="7" fill="#FCD34D" opacity="0.5"/>
  <circle cx="950" cy="80" r="5" fill="#FCD34D" opacity="0.4"/>
  <circle cx="300" cy="550" r="5" fill="#FCD34D" opacity="0.4"/>
  
  <!-- Scale Icon - Left side -->
  <g transform="translate(100, 140)">
    <rect x="110" y="70" width="30" height="120" rx="15" fill="#10B981"/>
    <rect x="10" y="55" width="230" height="12" rx="6" fill="#10B981" transform="rotate(-3 125 61)"/>
    
    <circle cx="45" cy="125" r="50" fill="white" stroke="#10B981" stroke-width="4"/>
    <text x="45" y="118" text-anchor="middle" fill="#059669" font-family="system-ui, -apple-system, sans-serif" font-size="16" font-weight="700">YOUR</text>
    <text x="45" y="138" text-anchor="middle" fill="#059669" font-family="system-ui, -apple-system, sans-serif" font-size="16" font-weight="700">CASE</text>
    <line x1="45" y1="75" x2="45" y2="68" stroke="#10B981" stroke-width="3"/>
    
    <circle cx="205" cy="95" r="42" fill="#FEF3C7" stroke="#F59E0B" stroke-width="3"/>
    <text x="205" y="102" text-anchor="middle" fill="#D97706" font-family="system-ui, -apple-system, sans-serif" font-size="20" font-weight="700">$$$</text>
    <line x1="205" y1="53" x2="205" y2="48" stroke="#10B981" stroke-width="3"/>
    
    <circle cx="205" cy="175" r="36" fill="#10B981"/>
    <path d="M185 175 L200 190 L230 155" fill="none" stroke="white" stroke-width="7" stroke-linecap="round" stroke-linejoin="round"/>
    
    <circle cx="-5" cy="60" r="8" fill="#FCD34D"/>
    <circle cx="255" cy="35" r="7" fill="#FCD34D"/>
    <circle cx="265" cy="140" r="5" fill="#FCD34D"/>
    
    <line x1="125" y1="20" x2="125" y2="5" stroke="#FCD34D" stroke-width="4" stroke-linecap="round"/>
    <line x1="155" y1="28" x2="170" y2="12" stroke="#FCD34D" stroke-width="4" stroke-linecap="round"/>
    <line x1="95" y1="28" x2="80" y2="12" stroke="#FCD34D" stroke-width="4" stroke-linecap="round"/>
  </g>
  
  <!-- Text content - Right side -->
  <text x="550" y="220" fill="#1F2937" font-family="system-ui, -apple-system, sans-serif" font-size="64" font-weight="700">SmallClaims</text>
  <text x="550" y="290" fill="#10B981" font-family="system-ui, -apple-system, sans-serif" font-size="64" font-weight="700">Pro</text>
  <text x="550" y="340" fill="#4B5563" font-family="system-ui, -apple-system, sans-serif" font-size="24" font-weight="500">Get your money back. We'll show you how.</text>
  
  <!-- Features list -->
  <g transform="translate(550, 390)">
    <circle cx="10" cy="10" r="8" fill="#10B981"/>
    <path d="M5 10 L9 14 L16 6" fill="none" stroke="white" stroke-width="2" stroke-linecap="round"/>
    <text x="30" y="16" fill="#4B5563" font-family="system-ui, -apple-system, sans-serif" font-size="18">AI-Powered Demand Letters</text>
    
    <circle cx="10" cy="50" r="8" fill="#10B981"/>
    <path d="M5 50 L9 54 L16 46" fill="none" stroke="white" stroke-width="2" stroke-linecap="round"/>
    <text x="30" y="56" fill="#4B5563" font-family="system-ui, -apple-system, sans-serif" font-size="18">Step-by-Step Court Guides</text>
    
    <circle cx="10" cy="90" r="8" fill="#10B981"/>
    <path d="M5 90 L9 94 L16 86" fill="none" stroke="white" stroke-width="2" stroke-linecap="round"/>
    <text x="30" y="96" fill="#4B5563" font-family="system-ui, -apple-system, sans-serif" font-size="18">SmallClaimsPro Expert Guidance</text>
  </g>
  
  <!-- Website -->
  <text x="550" y="560" fill="#6B7280" font-family="system-ui, -apple-system, sans-serif" font-size="20" font-weight="500">smallclaimspro.online</text>
  
  <!-- Powered by -->
  <text x="1100" y="600" text-anchor="end" fill="#9CA3AF" font-family="system-ui, -apple-system, sans-serif" font-size="12">Powered by Chaotically Organized AI</text>
</svg>
